<?xml version="1.0" encoding="UTF-8"?>
<svg version="1.1" xmlns="http://www.w3.org/2000/svg" width="2000" height="348">
<path d="M0 0 C0.74465639 -0.0055344 1.48931278 -0.01106879 2.25653452 -0.0167709 C4.74716497 -0.03036432 7.23679103 -0.0154161 9.72740173 -0.00050354 C11.51473415 -0.00428717 13.30206363 -0.00978758 15.08938599 -0.01687622 C19.94056807 -0.03084132 24.79139591 -0.01965409 29.64255834 -0.00316501 C34.71759018 0.01068043 39.79260135 0.00422607 44.86764526 0.0007019 C53.38931491 -0.00200037 61.91084372 0.01147775 70.43247986 0.03465271 C80.28858919 0.06127106 90.14446314 0.06300689 100.00059611 0.05126435 C109.47852091 0.04049088 118.95636046 0.0466697 128.43427849 0.06081963 C132.46969553 0.06658231 136.50505025 0.06649455 140.54046822 0.06175423 C145.29047913 0.05698714 150.04023178 0.06707498 154.79019356 0.08870888 C156.53490834 0.09428026 158.27964791 0.09473882 160.02436447 0.08975601 C162.40300558 0.08381392 164.78085419 0.09628688 167.15942383 0.11352539 C167.85251445 0.10751535 168.54560508 0.1015053 169.25969845 0.09531313 C172.25466425 0.13487952 174.27657449 0.36757949 176.91351986 1.83793545 C180.33600158 5.3897607 179.66137533 9.88193735 179.64903259 14.49339294 C179.64998932 15.27634735 179.65094604 16.05930176 179.65193176 16.86598206 C179.65261198 18.52189718 179.65076872 20.17781498 179.64659119 21.83372498 C179.64125503 24.35966542 179.64653409 26.88542689 179.65293884 29.41136169 C179.65227775 31.02203917 179.65099595 32.63271653 179.64903259 34.24339294 C179.65105682 34.99563141 179.65308105 35.74786987 179.65516663 36.52290344 C179.63838188 40.30719295 179.42806931 43.8221157 178.51622009 47.50120544 C179.04731384 47.22405701 179.57840759 46.94690857 180.12559509 46.66136169 C180.83200134 46.29913513 181.53840759 45.93690857 182.26622009 45.56370544 C182.96231384 45.20405701 183.65840759 44.84440857 184.37559509 44.47386169 C191.09442085 41.42096459 199.30442263 41.4439466 206.37950134 43.21995544 C217.39938903 47.3670452 222.46321106 54.65334083 227.74278259 64.87620544 C236.73407506 85.19240827 235.41902932 110.15642905 227.82872009 130.68870544 C222.80906595 143.49016819 216.17907932 154.80843531 207.51622009 165.50120544 C206.77629822 166.44479919 206.03637634 167.38839294 205.27403259 168.36058044 C199.14016137 175.92503505 192.37764477 182.85008264 185.51622009 189.75120544 C184.60267761 190.67401306 183.68913513 191.59682068 182.74790955 192.54759216 C176.64332212 198.62435458 170.26473156 204.15427811 163.51622009 209.50120544 C162.13370715 210.62106266 160.75209328 211.74203144 159.37168884 212.86448669 C158.14949827 213.8481385 156.9268562 214.83122963 155.70372009 215.81370544 C155.08819275 216.3119281 154.47266541 216.81015076 153.83848572 217.32347107 C143.65142691 225.50120544 143.65142691 225.50120544 140.51622009 225.50120544 C140.27000916 226.33393982 140.02379822 227.16667419 139.77012634 228.02464294 C138.34353724 231.97998346 136.52333572 235.47723922 134.45372009 239.12620544 C134.05523865 239.82914734 133.6567572 240.53208923 133.24620056 241.2563324 C129.49632115 247.74083681 125.23274738 253.68032055 120.51622009 259.50120544 C119.82230164 260.36334656 119.82230164 260.36334656 119.11436462 261.24290466 C117.65548368 263.04699106 116.18311429 264.83891326 114.70372009 266.62620544 C114.0194696 267.46188049 114.0194696 267.46188049 113.32139587 268.31443787 C110.37449702 271.80607309 108.03484413 274.19116595 103.3984375 274.76190186 C102.2618998 274.76881294 102.2618998 274.76881294 101.10240173 274.77586365 C100.23792923 274.78539566 99.37345673 274.79492767 98.48278809 274.80474854 C97.55667221 274.80383713 96.63055634 274.80292572 95.67637634 274.80198669 C94.71726852 274.80627182 93.75816071 274.81055695 92.76998901 274.81497192 C90.74343149 274.82070979 88.71685336 274.82121949 86.69029236 274.81687927 C83.59349857 274.81372052 80.49766135 274.83718125 77.40098572 274.86253357 C75.4302838 274.86480677 73.45957931 274.86550996 71.48887634 274.86448669 C70.10273888 274.87830132 70.10273888 274.87830132 68.68859863 274.89239502 C62.29721274 274.84651043 58.91431724 273.77839013 54.19200134 269.29417419 C44.33417615 258.4261256 36.43018461 246.87717003 29.42637634 233.99729919 C28.79602478 232.84358826 28.16567322 231.68987732 27.51622009 230.50120544 C27.06891541 229.61819763 26.62161072 228.73518982 26.16075134 227.82542419 C23.98639711 224.75240574 21.23248338 222.92512958 18.14122009 220.87620544 C11.38948708 216.23345456 5.20660241 211.13309518 -0.98280334 205.77561951 C-3.20306503 203.89049166 -5.50554265 202.11210514 -7.79627991 200.31370544 C-19.22030296 190.99718884 -29.50280209 180.17140261 -38.48377991 168.50120544 C-39.30233459 167.48800232 -40.12088928 166.47479919 -40.96424866 165.43089294 C-60.11604761 141.55464491 -68.91121233 115.10456488 -66.48377991 84.50120544 C-64.73299305 70.63944591 -59.10869132 56.87495906 -48.48377991 47.50120544 C-43.08130063 44.02197013 -37.87842256 42.33473695 -31.48377991 42.18870544 C-30.43190491 42.15132263 -29.38002991 42.11393982 -28.29627991 42.07542419 C-23.01474411 42.66526784 -18.39573716 44.53653357 -13.48377991 46.50120544 C-13.47967102 45.24984802 -13.47556213 43.9984906 -13.47132874 42.70921326 C-13.44955017 38.06458903 -13.39527372 33.42081349 -13.33119202 28.77659607 C-13.30800087 26.76691321 -13.29361369 24.75710863 -13.28822327 22.74729919 C-13.27894183 19.85720362 -13.23796979 16.96902556 -13.19081116 14.07933044 C-13.1947438 13.18127686 -13.19867645 12.28322327 -13.20272827 11.35795593 C-13.17326363 10.09710175 -13.17326363 10.09710175 -13.14320374 8.81077576 C-13.1365419 8.07353271 -13.12988007 7.33628967 -13.12301636 6.57670593 C-11.24377394 0.47510056 -5.53060817 -0.0768919 0 0 Z M16.51622009 31.50120544 C12.50357278 39.52650007 16.01949051 53.55261539 16.70372009 62.43870544 C16.76901917 63.28757324 16.83431824 64.13644104 16.90159607 65.0110321 C21.45180847 123.02961975 30.29805339 202.28303874 73.51622009 245.50120544 C76.61969264 245.8313621 78.67403186 246.00651839 81.39122009 244.37620544 C83.05010355 241.61139969 82.82622908 239.68654779 82.51622009 236.50120544 C80.91661337 233.81661417 80.91661337 233.81661417 78.64122009 231.25120544 C39.03503957 181.51651592 29.93301484 100.70087894 28.98179626 38.82444763 C28.86262839 34.79333686 28.41233382 32.39731917 25.51622009 29.50120544 C21.75914036 27.62266558 19.72302419 29.16110515 16.51622009 31.50120544 Z M-43.73377991 64.06370544 C-53.23081201 78.02537492 -53.77066254 95.67977436 -51.22596741 111.80198669 C-46.88012474 133.46258148 -34.65791326 151.04800104 -19.80799866 166.98948669 C-17.86024881 169.09436594 -16.00849854 171.23857943 -14.17127991 173.43870544 C-6.32723897 182.44825247 3.06750585 190.24937059 12.51622009 197.50120544 C13.87134759 195.3663469 13.87134759 195.3663469 12.54747009 192.35276794 C12.03952722 190.94302 11.52885533 189.53425386 11.01622009 188.12620544 C0.34637113 157.28012613 -4.88954468 124.67005762 -8.40956116 92.31512451 C-8.62199435 90.36319839 -8.8393581 88.41181092 -9.05677795 86.46043396 C-9.35723867 83.67451544 -9.63358012 80.89235239 -9.88929749 78.1025238 C-10.03620641 76.65984885 -10.18357262 75.21722037 -10.33143616 73.77464294 C-10.51331482 71.8379071 -10.51331482 71.8379071 -10.6988678 69.86204529 C-11.59163168 66.03940527 -12.68115187 64.65764315 -15.67127991 62.18870544 C-18.05802097 60.67818521 -18.05802097 60.67818521 -20.48377991 59.50120544 C-21.13475647 59.14800232 -21.78573303 58.79479919 -22.45643616 58.43089294 C-30.71039194 54.40368814 -38.10960747 57.12959918 -43.73377991 64.06370544 Z M185.51622009 60.50120544 C184.86097351 60.78608826 184.20572693 61.07097107 183.53062439 61.36448669 C180.84660372 62.82137906 179.3574546 64.03950502 177.51622009 66.50120544 C176.20685878 71.56841327 175.81176064 76.57872868 175.48991394 81.79161072 C175.21475028 86.20360629 174.81315195 90.60494958 174.43418884 95.00901794 C174.36123596 95.89879333 174.28828308 96.78856873 174.21311951 97.70530701 C171.78646929 126.76660409 165.52267459 155.46727566 157.03184509 183.32151794 C155.61759736 188.00948728 154.51594269 192.7084177 153.51622009 197.50120544 C161.11202821 192.13945854 167.80802554 185.90820057 174.51622009 179.50120544 C175.10274353 178.94336365 175.68926697 178.38552185 176.29356384 177.81077576 C198.1633348 156.88614261 218.03926559 131.09475793 218.86534119 99.64768982 C218.98898315 86.40633517 217.62605872 72.86213156 208.69590759 62.36058044 C205.05388702 58.84710177 201.74574486 56.43765945 196.58262634 56.23558044 C192.47917679 56.763056 189.02900766 58.37241171 185.51622009 60.50120544 Z " fill="#FF5D5D" transform="translate(87.48377990722656,2.4987945556640625)"/>
<path d="M0 0 C11.88 0 23.76 0 36 0 C45.17116899 18.34233797 45.17116899 18.34233797 47.9921875 24.67578125 C48.46750412 25.7298542 48.46750412 25.7298542 48.9524231 26.80522156 C49.92970393 28.97294181 50.90284516 31.14247667 51.875 33.3125 C52.86883157 35.52882166 53.86367705 37.74465869 54.86184692 39.95903015 C55.47435008 41.31790692 56.08441561 42.677886 56.69161987 44.03913879 C57.96883992 46.87355831 59.26960603 49.40440905 61 52 C63.29598806 47.16748076 65.58869581 42.33342254 67.87866211 37.49804688 C68.65450332 35.86092432 69.43116635 34.22419093 70.20874023 32.58789062 C71.34066631 30.20550451 72.46940426 27.82162792 73.59765625 25.4375 C73.9333815 24.73262451 74.26910675 24.02774902 74.61500549 23.30151367 C78.25130012 15.6020759 81.581612 7.81345827 85 0 C97.21 0 109.42 0 122 0 C122 38.94 122 77.88 122 118 C110.78 118 99.56 118 88 118 C87.67 99.85 87.34 81.7 87 63 C81.39 75.21 75.78 87.42 70 100 C64.06 100 58.12 100 52 100 C45.61265304 87.46187448 39.83734128 74.84215081 34 62 C33.67 80.48 33.34 98.96 33 118 C22.11 118 11.22 118 0 118 C0 79.06 0 40.12 0 0 Z " fill="#FF5D5D" transform="translate(398,33)"/>
<path d="M0 0 C3.77513213 2.40803465 6.90136628 5.25122887 10.125 8.35546875 C10.455 5.05546875 10.785 1.75546875 11.125 -1.64453125 C20.365 -1.64453125 29.605 -1.64453125 39.125 -1.64453125 C39.19300994 9.36122041 39.24795063 20.36683053 39.28043652 31.37274551 C39.29603486 36.48425407 39.31716564 41.59561032 39.35131836 46.70703125 C39.38412099 51.64779896 39.40189677 56.58842097 39.40963173 61.52928925 C39.41513794 63.40616903 39.42588934 65.28304163 39.44219017 67.1598587 C39.5770595 83.3445867 38.47221065 96.67294229 27.34765625 109.38671875 C16.0293148 120.29826991 -0.64751266 123.89718177 -15.90893555 123.70483398 C-31.29014863 123.1566332 -45.73418652 118.23102477 -56.875 107.35546875 C-53.45375825 99.82873689 -46.72455582 94.04500632 -40.875 88.35546875 C-38.48054322 89.5262228 -36.14346662 90.75897697 -33.80859375 92.046875 C-24.6370178 96.95546146 -16.99938989 99.81303746 -6.5625 97.35546875 C-1.55299294 95.56351471 1.73347956 93.17195747 4.125 88.35546875 C5.14911026 84.37834153 5.73593751 80.44062493 6.125 76.35546875 C4.7328125 77.71671875 4.7328125 77.71671875 3.3125 79.10546875 C-4.31314958 85.541517 -12.72601532 87.00341249 -22.51171875 86.671875 C-34.00061772 85.59103781 -41.9036769 80.43818126 -49.26953125 71.70703125 C-58.01877021 58.89184426 -58.87153713 42.45621522 -56.19140625 27.5546875 C-53.03696924 17.46310685 -46.58875421 6.9901239 -37.08984375 1.84765625 C-25.79168326 -3.36229918 -11.69719069 -5.62521149 0 0 Z M-20.125 29.79296875 C-24.49525499 36.1922707 -24.61466982 41.67788323 -23.875 49.35546875 C-22.62472384 53.69774525 -20.31741574 56.01038447 -16.75 58.79296875 C-12.28364716 61.01173758 -7.74360104 61.16019619 -2.875 60.35546875 C0.53046227 58.75257923 0.53046227 58.75257923 3.125 56.35546875 C3.82753906 55.79859375 4.53007813 55.24171875 5.25390625 54.66796875 C8.49709833 50.65968125 7.78175963 45.99201652 7.56640625 41.06640625 C6.8446554 34.9985894 4.86241853 31.63758769 0.22265625 27.76953125 C-7.07088574 22.70184948 -13.87596774 23.0231838 -20.125 29.79296875 Z " fill="#FF5D5D" transform="translate(1159.875,64.64453125)"/>
<path d="M0 0 C11.12540364 6.62940059 18.85087156 16.83056537 22.2265625 29.27734375 C25.62184073 46.2537349 22.35559684 61.25839766 13.0234375 75.69921875 C8.11197996 82.03793746 0.38738196 86.69016324 -7.48046875 88.22265625 C-18.72737156 89.56971875 -27.50577854 87.30450649 -36.8203125 80.87109375 C-38.53515625 79.46875 -38.53515625 79.46875 -39.53515625 77.46875 C-39.86515625 91.98875 -40.19515625 106.50875 -40.53515625 121.46875 C-51.42515625 121.46875 -62.31515625 121.46875 -73.53515625 121.46875 C-73.53515625 80.87875 -73.53515625 40.28875 -73.53515625 -1.53125 C-63.96515625 -1.53125 -54.39515625 -1.53125 -44.53515625 -1.53125 C-44.20515625 1.76875 -43.87515625 5.06875 -43.53515625 8.46875 C-42.83390625 7.72625 -42.13265625 6.98375 -41.41015625 6.21875 C-30.60801642 -4.11373158 -13.70959998 -5.91477349 0 0 Z M-39.234375 30.09375 C-41.12050423 33.53749346 -41.10967789 36.88426178 -41.09765625 40.71875 C-41.09596436 41.48074707 -41.09427246 42.24274414 -41.0925293 43.02783203 C-40.91863646 48.45166001 -40.04229474 52.06745055 -36.16796875 56.0859375 C-35.62914062 56.54226562 -35.0903125 56.99859375 -34.53515625 57.46875 C-33.77203125 58.12875 -33.00890625 58.78875 -32.22265625 59.46875 C-28.2564984 60.94452967 -24.71055614 61.11792878 -20.53515625 60.46875 C-15.46582684 58.07755688 -12.47004391 54.70491505 -10.53515625 49.46875 C-9.18645077 43.80603453 -9.0174829 38.68269889 -11.37890625 33.29296875 C-14.07171837 29.04451179 -17.79321258 26.04939789 -22.53515625 24.46875 C-29.13835545 23.82137753 -34.43633285 25.5052775 -39.234375 30.09375 Z " fill="#FF5D5D" transform="translate(1630.53515625,64.53125)"/>
<path d="M0 0 C0.495 0.99 0.495 0.99 1 2 C-0.52827676 5.71044487 -2.44697579 9.22647772 -4.31396484 12.77709961 C-5.24461953 14.55223724 -6.15558914 16.33764946 -7.06640625 18.12304688 C-7.64777344 19.23873047 -8.22914062 20.35441406 -8.828125 21.50390625 C-9.3634082 22.53330322 -9.89869141 23.5627002 -10.45019531 24.62329102 C-12 27 -12 27 -15 28 C-17.34285465 26.99040484 -19.55390822 25.92238349 -21.8125 24.75 C-30.09077097 20.68909473 -39.52621906 16.54513309 -48.875 18.8125 C-49.90625 19.204375 -50.9375 19.59625 -52 20 C-52.77242269 21.83700789 -52.77242269 21.83700789 -53 24 C-50.77090947 27.53670663 -46.63522898 28.48093073 -42.875 29.8125 C-42.17286377 30.07039307 -41.47072754 30.32828613 -40.74731445 30.59399414 C-37.0343074 31.94900114 -33.30461041 33.23936401 -29.55078125 34.4765625 C-18.50429765 38.14765877 -6.25083665 42.40162632 0 53 C2.76252594 59.11465573 3.51876374 64.19804106 3.4375 70.875 C3.42847656 71.75905518 3.41945313 72.64311035 3.41015625 73.55395508 C3.14138604 83.66550083 0.42686276 90.55657191 -6.59375 97.95703125 C-18.16174823 107.77856221 -33.55209052 109.81121389 -48.22265625 108.75390625 C-61.01281907 107.5609579 -73.06485725 104.45862609 -84.875 99.4375 C-85.57181885 99.14464111 -86.2686377 98.85178223 -86.98657227 98.55004883 C-88.69894351 97.78648487 -90.3560371 96.90146057 -92 96 C-93.36209177 91.91372468 -92.13571138 90.61815738 -90.25390625 86.80078125 C-89.81896095 85.90820869 -89.81896095 85.90820869 -89.37522888 84.99760437 C-88.44686558 83.09788628 -87.50492733 81.20527422 -86.5625 79.3125 C-85.93073498 78.02583491 -85.29986429 76.73873028 -84.66992188 75.45117188 C-83.12362658 72.29561491 -81.56508598 69.14628733 -80 66 C-76.00183453 66.72126888 -73.0264114 67.8837653 -69.4375 69.8125 C-58.2479107 75.51001426 -45.67818023 80.16954506 -33 77 C-32.86521065 74.12133744 -32.86521065 74.12133744 -34 71 C-40.23260742 67.32042073 -46.87102915 65.33142708 -53.75 63.1875 C-65.72866779 59.30301634 -77.98962389 55.27399666 -85 44 C-89.94055361 33.65682661 -89.0921166 21.68757937 -85.453125 11.078125 C-81.15947593 1.9829759 -72.8460088 -5.15868262 -63.609375 -8.9921875 C-41.86264784 -16.55313568 -19.67827134 -10.33109245 0 0 Z " fill="#FF5D5D" transform="translate(1544,44)"/>
<path d="M0 0 C10.56 0 21.12 0 32 0 C32.05607422 5.74277344 32.05607422 5.74277344 32.11328125 11.6015625 C32.15950998 15.31499909 32.21073893 19.02833542 32.26245117 22.74169922 C32.29567781 25.3197621 32.32371673 27.89789733 32.34643555 30.47607422 C32.38002207 34.18488354 32.43234244 37.8930312 32.48828125 41.6015625 C32.49467117 42.75177887 32.5010611 43.90199524 32.50764465 45.08706665 C32.63541091 52.96558625 32.63541091 52.96558625 36 60 C39.22135852 61.61067926 42.50678069 61.46576257 46 61 C49.96661775 59.44416158 52.60259587 57.5961062 55 54 C55.3280304 51.51562053 55.3280304 51.51562053 55.31884766 48.70239258 C55.33871735 47.62149857 55.35858704 46.54060455 55.37905884 45.42695618 C55.39061005 44.26125595 55.40216125 43.09555573 55.4140625 41.89453125 C55.43342865 40.70018967 55.4527948 39.50584808 55.4727478 38.27531433 C55.53260616 34.45444924 55.57895454 30.63355413 55.625 26.8125 C55.66317397 24.22459612 55.70222535 21.63670501 55.7421875 19.04882812 C55.8399668 12.69928464 55.91948767 6.34988007 56 0 C66.56 0 77.12 0 88 0 C88.06058594 4.00769531 88.12117188 8.01539062 88.18359375 12.14453125 C88.23455915 15.3394187 88.28647797 18.53428748 88.33904266 21.72914886 C88.3942744 25.10203368 88.44782467 28.47492603 88.49731445 31.84790039 C88.55496637 35.71769614 88.61867568 39.58735144 88.68359375 43.45703125 C88.70030624 44.66647903 88.71701874 45.87592682 88.73423767 47.12202454 C88.7641555 48.80342781 88.7641555 48.80342781 88.79467773 50.51879883 C88.81799416 52.00105705 88.81799416 52.00105705 88.84178162 53.51325989 C88.90213783 56.13199956 88.90213783 56.13199956 90 59 C91.32 59.66 92.64 60.32 94 61 C94 69.91 94 78.82 94 88 C84.32197474 90.15067228 76.01301978 91.7077715 67 87 C63.7835912 84.20618506 61.83260958 80.80492482 60 77 C59.21689453 77.79664063 59.21689453 77.79664063 58.41796875 78.609375 C49.0410234 87.60861502 38.46299133 90.42151806 25.61328125 90.20703125 C18.05784343 89.60846891 12.1987763 87.28272205 6.69140625 82.03125 C1.20568001 75.44331087 -0.12949524 67.72601071 -0.11352539 59.3737793 C-0.11367142 58.72931351 -0.11381744 58.08484772 -0.1139679 57.42085266 C-0.11327506 55.30527296 -0.10551231 53.18978294 -0.09765625 51.07421875 C-0.09578983 49.60162911 -0.09436699 48.12903885 -0.09336853 46.65644836 C-0.08956096 42.79147612 -0.07974579 38.9265418 -0.06866455 35.06158447 C-0.05660816 30.41844211 -0.0520398 25.77528704 -0.04621124 21.13213348 C-0.03653303 14.08806266 -0.01736419 7.04407495 0 0 Z " fill="#FF5D5D" transform="translate(1213,63)"/>
<path d="M0 0 C9.81150252 7.50571992 16.00121695 17.0417147 18.3515625 29.28125 C19.0214231 35.32913424 19.564006 41.932982 17.625 47.75 C-2.505 47.75 -22.635 47.75 -43.375 47.75 C-40.31478506 55.33851319 -40.31478506 55.33851319 -36.75 57.75 C-30.84696926 59.49904614 -25.57359836 59.69225644 -19.875 57.25 C-19.05 56.755 -18.225 56.26 -17.375 55.75 C-16.715 55.75 -16.055 55.75 -15.375 55.75 C-14.715 54.43 -14.055 53.11 -13.375 51.75 C-6.90815857 52.34682298 -1.06206803 53.87454483 5.125 55.8125 C6.0428125 56.09416016 6.960625 56.37582031 7.90625 56.66601562 C10.14772203 57.3548013 12.38715031 58.04955305 14.625 58.75 C9.08898995 70.38388381 0.84253624 76.50625156 -11.0625 81.0625 C-25.17931872 85.81411077 -41.13031487 84.78409193 -54.6875 78.5625 C-65.32888051 72.69139351 -72.50282832 64.19612736 -76.25 52.625 C-79.68992123 38.16914053 -77.44871809 24.03449464 -70.03125 11.25390625 C-64.01480826 2.15829504 -54.49749498 -4.25219849 -43.8828125 -6.77734375 C-28.5995242 -8.83667324 -13.23805947 -8.6343761 0 0 Z M-40.375 19.75 C-42.56202362 22.73893229 -43.375 24.02944454 -43.375 27.75 C-34.465 27.75 -25.555 27.75 -16.375 27.75 C-18.26151353 22.0904594 -19.07673413 20.41925136 -23.375 16.75 C-30.15607677 14.48964108 -34.95016068 15.082115 -40.375 19.75 Z " fill="#FF5D5D" transform="translate(980.375,69.25)"/>
<path d="M0 0 C1.39899359 1.03070277 2.77563283 2.09263037 4.125 3.1875 C5.06279297 3.93966797 5.06279297 3.93966797 6.01953125 4.70703125 C13.28193845 11.20997103 16.50417354 20.01460738 19.125 29.1875 C19.125 35.4575 19.125 41.7275 19.125 48.1875 C-1.005 48.1875 -21.135 48.1875 -41.875 48.1875 C-38.99971199 55.62358841 -38.99971199 55.62358841 -32.875 59.1875 C-26.00622664 60.30078742 -21.03988762 59.45768687 -15.3359375 55.4765625 C-13.74077246 54.23136924 -13.74077246 54.23136924 -12.875 52.1875 C-6.40815857 52.78432298 -0.56206803 54.31204483 5.625 56.25 C6.5428125 56.53166016 7.460625 56.81332031 8.40625 57.10351562 C10.64772203 57.7923013 12.88715031 58.48705305 15.125 59.1875 C11.64976774 69.03113816 3.21533 75.60732998 -5.94140625 80.015625 C-20.71075427 85.91549771 -37.14465077 85.9282629 -51.890625 79.96875 C-63.18504651 74.28999058 -70.33582286 65.92781241 -74.875 54.1875 C-75.89652306 50.85644655 -76.51520709 47.65050672 -76.875 44.1875 C-76.9575 43.4346875 -77.04 42.681875 -77.125 41.90625 C-77.77605118 29.69904032 -73.81171651 16.48479649 -65.875 7.1875 C-48.6691229 -9.40087417 -20.55599088 -12.80030818 0 0 Z M-38.875 19.1875 C-40.9063873 21.91283949 -42.875 24.68867102 -42.875 28.1875 C-33.965 28.1875 -25.055 28.1875 -15.875 28.1875 C-16.94512804 22.83685981 -18.26807842 20.14269118 -22.625 16.875 C-28.53556908 15.06899278 -33.83733 15.6382325 -38.875 19.1875 Z " fill="#FF5D5D" transform="translate(1390.875,68.8125)"/>
<path d="M0 0 C7.93270257 6.9551372 11.11167084 15.37229072 11.93359375 25.6953125 C11.99702207 27.7430438 12.04253819 29.7913753 12.07421875 31.83984375 C12.09355469 32.92845703 12.11289063 34.01707031 12.1328125 35.13867188 C12.16695828 37.40411289 12.18491801 39.66985001 12.1875 41.93554688 C12.21199219 43.01771484 12.23648437 44.09988281 12.26171875 45.21484375 C12.27106445 46.19557861 12.28041016 47.17631348 12.29003906 48.18676758 C12.50241211 49.0145874 12.71478516 49.84240723 12.93359375 50.6953125 C13.76238037 51.17548828 14.59116699 51.65566406 15.44506836 52.15039062 C16.26628174 52.66021484 17.08749512 53.17003906 17.93359375 53.6953125 C18.5012207 56.5144043 18.5012207 56.5144043 18.421875 59.89453125 C18.40576172 61.10302734 18.38964844 62.31152344 18.37304688 63.55664062 C18.33115234 64.81927734 18.28925781 66.08191406 18.24609375 67.3828125 C18.22353516 68.65705078 18.20097656 69.93128906 18.17773438 71.24414062 C18.11871637 74.3957021 18.0364235 77.54492529 17.93359375 80.6953125 C16.36275136 81.02582697 14.79094173 81.35174609 13.21875 81.67578125 C12.34355713 81.85778076 11.46836426 82.03978027 10.56665039 82.22729492 C3.32773901 83.51398877 -3.42332383 83.04353275 -10.06640625 79.6953125 C-13.1412385 76.6993221 -14.68128644 73.73524528 -16.06640625 69.6953125 C-16.51628906 70.14261719 -16.96617188 70.58992188 -17.4296875 71.05078125 C-25.75777055 78.87817794 -35.21825758 83.04850726 -46.67578125 82.83984375 C-56.40426052 82.25168406 -63.68792288 78.49895069 -70.44140625 71.4453125 C-75.07415769 65.62863569 -76.85074896 58.01584443 -76.06640625 50.6953125 C-74.37993123 41.472877 -70.00475262 35.59742734 -62.69140625 29.8828125 C-52.86656953 23.32556192 -39.61404552 22.34506729 -28.22265625 24.14453125 C-26.15724427 24.60532728 -24.10882645 25.14143584 -22.06640625 25.6953125 C-22.39771719 20.96389062 -22.39771719 20.96389062 -24.44140625 16.8203125 C-29.68000322 13.19359152 -37.03908492 14.13960202 -43.06640625 14.6953125 C-48.65968973 16.25133873 -53.84722658 18.34738972 -58.8125 21.36328125 C-61.06640625 22.6953125 -61.06640625 22.6953125 -63.06640625 22.6953125 C-66.03640625 16.4253125 -69.00640625 10.1553125 -72.06640625 3.6953125 C-68.30565417 -0.06543958 -66.1904382 -1.41845668 -61.44140625 -3.4296875 C-60.29414062 -3.92726563 -59.146875 -4.42484375 -57.96484375 -4.9375 C-40.22781489 -11.62504252 -15.64641797 -11.42619147 0 0 Z M-44.00390625 46.4453125 C-45.61323429 49.85330129 -45.04049318 52.12366041 -44.06640625 55.6953125 C-41.25146165 58.38542586 -39.18039261 59.14608974 -35.31640625 59.1953125 C-29.57581549 59.05073466 -25.11849019 56.74739644 -21.06640625 52.6953125 C-20.99460661 51.17603212 -20.98248618 49.65363768 -21.00390625 48.1328125 C-21.01292969 47.30652344 -21.02195312 46.48023438 -21.03125 45.62890625 C-21.04285156 44.99082031 -21.05445313 44.35273437 -21.06640625 43.6953125 C-29.65267619 41.28513146 -36.82644602 39.9624452 -44.00390625 46.4453125 Z " fill="#FF5D5D" transform="translate(1079.06640625,70.3046875)"/>
<path d="M0 0 C7.23957996 5.30372158 12.39578208 10.97775652 16.125 19.1875 C16.44597656 19.89003906 16.76695313 20.59257813 17.09765625 21.31640625 C21.15069383 32.15592537 20.76751773 46.80363974 16.51171875 57.48046875 C10.74963408 68.72870727 2.71251097 77.09758479 -9.28125 81.41015625 C-23.94482547 85.80481215 -38.99942024 85.42279742 -53.0625 79.0625 C-64.93789417 72.52717756 -71.75945773 63.21870783 -75.74609375 50.3828125 C-76.29058241 47.972042 -76.64717848 45.64712864 -76.875 43.1875 C-76.97941406 42.13755859 -76.97941406 42.13755859 -77.0859375 41.06640625 C-77.62162342 29.83760531 -74.46630067 19.20802696 -67.875 10.1875 C-67.42253906 9.54167969 -66.97007813 8.89585938 -66.50390625 8.23046875 C-51.91172396 -10.74350199 -19.15257969 -11.94634151 0 0 Z M-38.875 24.1875 C-43.5106401 29.65517806 -43.31633835 34.77629459 -43.30859375 41.78515625 C-42.66598257 46.82762774 -41.08145213 50.09875052 -37.3125 53.5 C-32.82676381 56.60550967 -29.24649946 56.81251427 -23.875 56.1875 C-19.14203464 54.0442704 -16.64815872 51.25284207 -14.56640625 46.6015625 C-12.86668522 40.66694331 -13.0913211 34.58207442 -15 28.75 C-17.68437467 25.08135462 -20.76332166 22.24333917 -24.875 20.1875 C-30.66250849 19.62009721 -34.44489129 20.53595 -38.875 24.1875 Z " fill="#FF5D5D" transform="translate(1735.875,68.8125)"/>
<path d="M0 0 C10.45977249 7.96369042 16.34024554 17.81961426 18.625 30.75 C19.86728783 45.3384882 16.95007997 57.34179705 7.94921875 68.90234375 C-0.89277195 78.76674879 -13.34756241 83.00925906 -26.23046875 83.9609375 C-40.90802793 84.46505446 -54.29209204 80.64877532 -65.1875 70.625 C-74.94999162 60.25016572 -77.85415857 48.37206965 -77.62109375 34.56640625 C-76.8249796 22.22031852 -72.34440573 11.73905835 -63.203125 3.2734375 C-46.21338783 -10.88467681 -18.45257672 -12.03548661 0 0 Z M-40.625 25.0625 C-44.26942083 30.65928914 -45.23812828 36.1902251 -44.375 42.75 C-43.0375636 47.49181995 -41.28614437 50.86054954 -37.75 54.3125 C-33.13842737 56.27668834 -29.30535745 56.7641558 -24.375 55.75 C-19.9843412 53.50552143 -17.33694937 50.32369226 -15.4375 45.8125 C-13.29720404 38.79339275 -14.14821771 32.27690053 -17.375 25.75 C-20.56172542 22.1080281 -23.17090632 20.51025757 -27.875 19.75 C-33.41122611 19.43364422 -36.76169416 21.09188011 -40.625 25.0625 Z " fill="#FF5D5D" transform="translate(820.375,69.25)"/>
<path d="M0 0 C5.54322159 4.20270395 12.49985577 9.60528913 13.6875 16.8125 C8.09714936 19.34872175 2.44026565 21.24187955 -3.4375 23 C-4.31792969 23.27263672 -5.19835937 23.54527344 -6.10546875 23.82617188 C-7.38744141 24.21192383 -7.38744141 24.21192383 -8.6953125 24.60546875 C-9.46246582 24.8377417 -10.22961914 25.07001465 -11.02001953 25.30932617 C-13.55894032 25.86659089 -15.72130448 26.02901571 -18.3125 25.8125 C-19.055 25.173125 -19.7975 24.53375 -20.5625 23.875 C-24.33810965 21.04329277 -27.64689289 20.61466507 -32.3125 20.8125 C-37.5310802 22.48638422 -39.73552033 25.04031543 -42.3125 29.8125 C-44.45297742 36.76905161 -43.59261326 43.41905889 -40.3125 49.8125 C-37.59735814 53.12157914 -35.57217405 54.51121013 -31.26171875 55.0859375 C-25.80770782 55.34762093 -25.80770782 55.34762093 -21.375 52.1875 C-18.3125 49.8125 -18.3125 49.8125 -16.23461914 49.890625 C-9.60226511 51.41015789 -3.1511005 53.31460851 3.3125 55.4375 C4.31667969 55.76234375 5.32085938 56.0871875 6.35546875 56.421875 C8.80113517 57.21380508 11.2450428 58.01073827 13.6875 58.8125 C9.60542465 69.49150069 2.38296525 75.2131497 -7.75 80.125 C-20.59966677 85.37758308 -36.36134049 85.62991489 -49.31640625 80.66015625 C-60.33137096 75.58173702 -69.67747772 67.93839981 -74.23828125 56.48828125 C-79.18420632 42.30683732 -78.38731175 28.6870966 -72.02734375 15.05859375 C-66.01803504 4.09453468 -56.502691 -2.69177656 -44.671875 -6.296875 C-29.88798255 -9.79518168 -12.80898459 -8.30748623 0 0 Z " fill="#FF5D5D" transform="translate(656.3125,69.1875)"/>
<path d="M0 0 C1.57296097 1.06808762 3.13970387 2.14576067 4.6875 3.25 C4.20092376 8.49881176 1.42202602 12.2573114 -1.375 16.5625 C-1.84744141 17.30306641 -2.31988281 18.04363281 -2.80664062 18.80664062 C-3.96837149 20.62551219 -5.13951482 22.4383659 -6.3125 24.25 C-10.1030596 23.38018684 -13.35495269 21.91591545 -16.875 20.25 C-23.66010595 17.02390617 -23.66010595 17.02390617 -31 16.1875 C-31.80824219 16.19652344 -32.61648438 16.20554687 -33.44921875 16.21484375 C-34.06410156 16.22644531 -34.67898438 16.23804687 -35.3125 16.25 C-35.8075 18.725 -35.8075 18.725 -36.3125 21.25 C-35.7040625 21.46914062 -35.095625 21.68828125 -34.46875 21.9140625 C-32.57385157 22.59956987 -30.68081838 23.29024235 -28.7890625 23.984375 C-26.30939032 24.88708712 -23.82697251 25.77073976 -21.3359375 26.640625 C-1.55460819 33.65294256 -1.55460819 33.65294256 3.6875 42.25 C6.97903619 50.9725709 6.20309826 58.79101262 2.6875 67.25 C-1.20229942 74.94770833 -7.46161161 78.22123087 -15.3125 81.25 C-30.49461632 86.03466696 -47.37426333 82.98654145 -61.63671875 76.65625 C-65.54318628 74.60321597 -68.96527685 72.11482923 -72.3125 69.25 C-71.7587522 64.14545207 -69.28657204 60.28424443 -66.75 55.9375 C-66.32525391 55.19693359 -65.90050781 54.45636719 -65.46289062 53.69335938 C-64.41898347 51.87531882 -63.36657808 50.06216252 -62.3125 48.25 C-58.08080364 49.55786455 -54.29260919 51.19080989 -50.375 53.25 C-42.05428825 57.44102189 -35.55053044 58.55069539 -26.3125 58.25 C-26.53353021 56.29200758 -26.53353021 56.29200758 -27.3125 54.25 C-28.91355086 53.14185993 -28.91355086 53.14185993 -30.9609375 52.50390625 C-32.09063965 52.08782104 -32.09063965 52.08782104 -33.24316406 51.66333008 C-34.04979492 51.38255615 -34.85642578 51.10178223 -35.6875 50.8125 C-37.33675254 50.20533435 -38.98519413 49.5959613 -40.6328125 48.984375 C-41.4362207 48.68982422 -42.23962891 48.39527344 -43.06738281 48.09179688 C-61.73849981 41.09114318 -61.73849981 41.09114318 -66.3125 33.25 C-68.72566573 24.85367595 -68.99776963 17.07849222 -65.3046875 9.0625 C-60.38569921 0.46241451 -52.90348152 -4.54681808 -43.47705078 -7.28271484 C-28.59765384 -10.49489235 -12.77408014 -7.9716728 0 0 Z " fill="#FF5D5D" transform="translate(1970.3125,69.75)"/>
<path d="M0 0 C10.56 0 21.12 0 32 0 C32 8.91 32 17.82 32 27 C37.61 27 43.22 27 49 27 C49 35.25 49 43.5 49 52 C43.39 52 37.78 52 32 52 C32.0970745 56.19974926 32.19988469 60.39854303 32.31738281 64.59765625 C32.35560024 66.02530398 32.39046572 67.45304563 32.421875 68.88085938 C32.46768401 70.93653868 32.5256498 72.99157554 32.5859375 75.046875 C32.6173584 76.28276367 32.6487793 77.51865234 32.68115234 78.79199219 C32.97682001 81.76678017 33.44027331 83.49349184 35 86 C36.35404497 86.02763357 37.70826555 86.04667422 39.0625 86.0625 C39.81660156 86.07410156 40.57070312 86.08570312 41.34765625 86.09765625 C44.61124192 85.97749477 47.77521826 85.50128186 51 85 C51.86905722 88.57989022 52.71762696 92.16433193 53.5625 95.75 C53.9327832 97.27367187 53.9327832 97.27367187 54.31054688 98.828125 C54.53935547 99.8078125 54.76816406 100.7875 55.00390625 101.796875 C55.32597046 103.14797363 55.32597046 103.14797363 55.65454102 104.52636719 C56.0139549 107.09992297 56.02406041 108.61514305 55 111 C52.57722837 112.12075845 50.41027246 112.93514338 47.875 113.6875 C46.89660156 114.00557617 46.89660156 114.00557617 45.8984375 114.33007812 C34.73925548 117.83946374 21.86515238 119.01902368 11 114 C5.53161359 110.50229624 2.31446793 106.40489736 0.43678284 100.11260986 C-0.0429565 97.79223012 -0.120034 95.69237736 -0.11352539 93.32324219 C-0.11344986 92.40258972 -0.11337433 91.48193726 -0.11329651 90.53338623 C-0.10813522 89.54783752 -0.10297394 88.56228882 -0.09765625 87.546875 C-0.0962413 86.53151672 -0.09482635 85.51615845 -0.09336853 84.47003174 C-0.08777516 81.22999108 -0.07522385 77.99001975 -0.0625 74.75 C-0.05748414 72.55208433 -0.05292139 70.35416758 -0.04882812 68.15625 C-0.0378079 62.77080666 -0.02054778 57.38541508 0 52 C-3.63 52 -7.26 52 -11 52 C-11 43.75 -11 35.5 -11 27 C-7.37 27 -3.74 27 0 27 C0 18.09 0 9.18 0 0 Z " fill="#FF5D5D" transform="translate(1840,36)"/>
<path d="M0 0 C10.89 0 21.78 0 33 0 C33.01458252 2.74094971 33.02916504 5.48189941 33.04418945 8.3059082 C33.09447127 17.35050106 33.16105479 26.39492059 33.23571491 35.43934345 C33.28048927 40.9243098 33.31972974 46.40920066 33.34643555 51.89428711 C33.3723981 57.18528265 33.41275026 62.47598876 33.46318626 67.76680565 C33.47990278 69.7878275 33.49138716 71.80889946 33.49761391 73.82998085 C33.50720307 76.65560045 33.53519965 79.48047151 33.56762695 82.3059082 C33.56619186 83.14603958 33.56475677 83.98617096 33.5632782 84.85176086 C33.52781519 89.04830989 33.52781519 89.04830989 35.27882671 92.72284222 C38.180032 94.87561611 41.55949607 94.3045919 45 94 C47.35529281 93.58268982 47.35529281 93.58268982 49 93 C51.40816567 100.74053252 53.44079285 108.84533223 53 117 C41.99619917 122.72419942 29.03160709 124.93958894 16.875 121.9375 C10.99992697 119.96680621 6.1449628 116.50046013 2.875 111.1640625 C-0.10316075 104.60638162 -0.1408752 98.20851995 -0.11352539 91.16088867 C-0.11367142 90.17504791 -0.11381744 89.18920715 -0.1139679 88.17349243 C-0.11327237 84.92162866 -0.10549681 81.66982249 -0.09765625 78.41796875 C-0.09579079 76.16067028 -0.09436749 73.90337141 -0.09336853 71.64607239 C-0.08955343 65.70967488 -0.07973172 59.77330189 -0.06866455 53.83691406 C-0.0584288 47.77734713 -0.05386627 41.71777622 -0.04882812 35.65820312 C-0.03810856 23.77212291 -0.02051989 11.88606734 0 0 Z " fill="#FF5D5D" transform="translate(848,30)"/>
<path d="M0 0 C0 9.57 0 19.14 0 29 C-8.5 30.1875 -8.5 30.1875 -11.12695312 30.52416992 C-12.19333008 30.68816284 -12.19333008 30.68816284 -13.28125 30.85546875 C-13.99345703 30.95496826 -14.70566406 31.05446777 -15.43945312 31.15698242 C-19.53022539 32.50380132 -23.00990838 33.79186956 -26 37 C-27.17858717 40.94374339 -27.07146559 44.77174632 -27 48.86328125 C-27.01087646 50.01040085 -27.02175293 51.15752045 -27.03295898 52.33940125 C-27.0591246 55.9980548 -27.03026597 59.65392047 -27 63.3125 C-27.00809086 65.79493635 -27.01976709 68.27736379 -27.03515625 70.75976562 C-27.07175695 76.84158227 -27.03395029 82.91653315 -27 89 C-37.89 89 -48.78 89 -60 89 C-60 59.96 -60 30.92 -60 1 C-50.1 1 -40.2 1 -30 1 C-29.67 5.29 -29.34 9.58 -29 14 C-27.88625 12.618125 -26.7725 11.23625 -25.625 9.8125 C-17.61183643 0.88394868 -12.20503948 0 0 0 Z " fill="#FF5D5D" transform="translate(1825,62)"/>
<path d="M0 0 C0 9.57 0 19.14 0 29 C-4.62 29.66 -9.24 30.32 -14 31 C-21.08022002 32.91847855 -21.08022002 32.91847855 -27 37 C-27.61562739 39.38843345 -27.61562739 39.38843345 -27.54589844 42.11401367 C-27.56561707 43.15486618 -27.58533569 44.19571869 -27.60565186 45.26811218 C-27.60688049 46.39006485 -27.60810913 47.51201752 -27.609375 48.66796875 C-27.62591125 49.81791824 -27.64244751 50.96786774 -27.65948486 52.15266418 C-27.7081282 55.83099623 -27.72937287 59.50891438 -27.75 63.1875 C-27.77814588 65.67905747 -27.80807134 68.17059551 -27.83984375 70.66210938 C-27.91724705 76.77493304 -27.95761824 82.88643102 -28 89 C-38.56 89 -49.12 89 -60 89 C-60 59.96 -60 30.92 -60 1 C-50.1 1 -40.2 1 -30 1 C-29.67 4.96 -29.34 8.92 -29 13 C-27.700625 11.5975 -26.40125 10.195 -25.0625 8.75 C-16.94689811 0.71036318 -11.99287084 0 0 0 Z " fill="#FF5D5D" transform="translate(739,62)"/>
<path d="M0 0 C10.56 0 21.12 0 32 0 C32 29.04 32 58.08 32 88 C21.44 88 10.88 88 0 88 C0 58.96 0 29.92 0 0 Z " fill="#FF5D5D" transform="translate(537,63)"/>
<path d="M0 0 C1.63631882 -0.01073296 1.63631882 -0.01073296 3.30569458 -0.02168274 C5.11662598 -0.02571609 5.11662598 -0.02571609 6.96414185 -0.02983093 C8.85907883 -0.03968773 8.85907883 -0.03968773 10.79229736 -0.04974365 C14.26752899 -0.06717729 17.74274683 -0.07771166 21.21801138 -0.08594918 C23.38746094 -0.09109397 25.55690618 -0.09716991 27.72635269 -0.10346031 C34.50894059 -0.12251835 41.29151754 -0.13674858 48.07412708 -0.14507228 C55.91312456 -0.15485025 63.75184009 -0.18118146 71.59073818 -0.22157317 C77.64341155 -0.25169468 83.69600391 -0.26653733 89.74875081 -0.26985329 C93.36680601 -0.27220824 96.9845602 -0.28122548 100.60253525 -0.30631447 C104.63731501 -0.33384111 108.6714618 -0.32977632 112.70632935 -0.32279968 C113.90956848 -0.33560974 115.11280762 -0.3484198 116.35250854 -0.36161804 C117.4490274 -0.35467422 118.54554626 -0.34773041 119.67529297 -0.34057617 C120.62989347 -0.34296453 121.58449398 -0.34535288 122.56802177 -0.34781361 C124.96463013 0.14717102 124.96463013 0.14717102 126.76786995 1.99015522 C128.40850867 4.94720852 128.45051665 6.81537771 127.96463013 10.14717102 C125.93142628 12.73745226 124.73298441 13.99322929 121.46617794 14.64774227 C120.52247121 14.64795156 119.57876448 14.64816084 118.60646057 14.64837646 C117.51987152 14.6582106 116.43328247 14.66804474 115.31376648 14.67817688 C114.12661545 14.66850891 112.93946442 14.65884094 111.71633911 14.64888 C110.46236328 14.65428299 109.20838745 14.65968597 107.91641235 14.66525269 C104.48025793 14.675618 101.04506613 14.66803736 97.60899615 14.65154147 C94.01359334 14.63768938 90.41821955 14.64415111 86.82279968 14.64767456 C80.78609143 14.65037622 74.74958207 14.63690384 68.71292114 14.61372375 C61.73162016 14.5871021 54.75065145 14.58537081 47.76931709 14.59711212 C41.05449699 14.60788649 34.33979719 14.60170634 27.62498665 14.58755684 C24.7665733 14.58179524 21.90824795 14.58188101 19.0498333 14.58662224 C15.06093619 14.59227507 11.07237245 14.57308603 7.08352661 14.55122375 C5.89435135 14.5557254 4.70517609 14.56022705 3.47996521 14.56486511 C1.85431137 14.55000816 1.85431137 14.55000816 0.19581604 14.53485107 C-1.21917852 14.53120623 -1.21917852 14.53120623 -2.66275883 14.52748775 C-5.47758311 14.07628663 -6.33696499 13.39403565 -8.03536987 11.14717102 C-8.91036987 8.77217102 -8.91036987 8.77217102 -9.03536987 6.14717102 C-6.4639493 1.00432988 -5.62272821 0.02519129 0 0 Z " fill="#FF5D5D" transform="translate(111.03536987304688,316.8528289794922)"/>
<path d="M0 0 C1.43964363 -0.005476 1.43964363 -0.005476 2.90837097 -0.01106262 C6.08167196 -0.01917018 9.25446266 -0.00555604 12.42773438 0.0090332 C14.63203938 0.00955178 16.83634486 0.00903416 19.04064941 0.00752258 C23.66079613 0.00761232 28.28076838 0.01804409 32.90087891 0.03613281 C38.82606581 0.05881987 44.75099775 0.05936414 50.67621613 0.05261517 C55.22807078 0.04927529 59.7798672 0.05590566 64.33171082 0.0657444 C66.51661372 0.06959635 68.70152311 0.07074464 70.88642883 0.06915855 C73.93873458 0.06878812 76.99071224 0.08140236 80.04296875 0.09765625 C81.4005555 0.09394012 81.4005555 0.09394012 82.78556824 0.09014893 C84.03464714 0.10077614 84.03464714 0.10077614 85.30895996 0.11161804 C86.03013756 0.11367091 86.75131516 0.11572378 87.49434662 0.11783886 C89.88135119 0.41749013 91.47881838 1.11359094 93.52148438 2.37231445 C95.06735313 5.46405197 94.81507959 7.96660998 94.52148438 11.37231445 C93.09910583 13.5655365 93.09910583 13.5655365 90.52148438 15.37231445 C87.34011733 15.97413183 84.19703539 15.92885296 80.96704102 15.90576172 C79.99913132 15.91437729 79.03122162 15.92299286 78.03398132 15.93186951 C74.83292942 15.95458099 71.63274934 15.94778066 68.43164062 15.9387207 C66.20730834 15.94395418 63.98297828 15.95022964 61.75865173 15.95750427 C57.09558677 15.96791824 52.43282677 15.96333283 47.76977539 15.94873047 C41.79283909 15.93154631 35.81686441 15.95502895 29.84003544 15.99022007 C25.24606449 16.01217715 20.6523242 16.01075653 16.05831718 16.00245476 C13.85468936 16.00163422 11.65104478 16.00851704 9.4474659 16.02322578 C6.3661497 16.04063871 3.28656853 16.02615502 0.20532227 16.00341797 C-1.16089767 16.02095627 -1.16089767 16.02095627 -2.55471802 16.03884888 C-7.0010161 15.97206817 -8.91484825 15.79268065 -12.57984924 13.05943298 C-14.47851562 10.37231445 -14.47851562 10.37231445 -14.54101562 6.74731445 C-13.47851562 3.37231445 -13.47851562 3.37231445 -12.0045166 1.68464661 C-8.0957178 -0.34608988 -4.34179397 -0.03666897 0 0 Z " fill="#FF5E5E" transform="translate(130.478515625,288.627685546875)"/>
<path d="M0 0 C10.56 0 21.12 0 32 0 C32 8.91 32 17.82 32 27 C21.44 27 10.88 27 0 27 C0 18.09 0 9.18 0 0 Z " fill="#FF5D5D" transform="translate(537,30)"/>
<path d="M0 0 C3.40466449 3.96444041 5.84121533 8.08850556 8.25 12.6875 C8.79527344 13.70166992 8.79527344 13.70166992 9.3515625 14.73632812 C12 19.73948543 12 19.73948543 12 22 C12.66 22 13.32 22 14 22 C14.23460937 21.35675781 14.46921875 20.71351563 14.7109375 20.05078125 C16.43907684 15.96085148 18.52724917 12.09783866 20.625 8.1875 C21.04523438 7.39923828 21.46546875 6.61097656 21.8984375 5.79882812 C22.9300009 3.86464674 23.96391172 1.93176017 25 0 C25.66 0 26.32 0 27 0 C28.32 11.55 29.64 23.1 31 35 C29.35 35 27.7 35 26 35 C24.35209433 31.70418867 24.33507166 28.00120309 23.9375 24.375 C23.628125 21.61125 23.31875 18.8475 23 16 C20.03 21.28 17.06 26.56 14 32 C13.34 32 12.68 32 12 32 C11.15115234 30.50146484 11.15115234 30.50146484 10.28515625 28.97265625 C9.5443558 27.66922254 8.80346575 26.36583975 8.0625 25.0625 C7.68931641 24.40314453 7.31613281 23.74378906 6.93164062 23.06445312 C5.23037187 19.84167167 5.23037187 19.84167167 3 17 C2.34 22.94 1.68 28.88 1 35 C-0.65 35 -2.3 35 -4 35 C-3.57849097 26.13721801 -3.02072592 17.31630711 -2 8.5 C-1.9170166 7.76467041 -1.8340332 7.02934082 -1.74853516 6.27172852 C-1.12553274 1.12553274 -1.12553274 1.12553274 0 0 Z " fill="#D5E1FF" transform="translate(1445,246)"/>
<path d="M0 0 C4.69327902 2.65657303 7.56838922 5.64266766 9.3125 10.875 C10.00698865 18.02481754 9.77444101 23.12144448 5.3125 28.875 C0.73484556 32.92036904 -3.69393867 34.10904399 -9.6875 33.875 C-15.49907457 32.86935413 -18.87394483 30.17924839 -22.55859375 25.69140625 C-25.14057553 21.5370065 -25.30082073 16.64335271 -24.6875 11.875 C-22.83745863 6.03944093 -20.17387596 2.79328509 -14.6875 -0.125 C-9.48953613 -1.85765462 -5.1467454 -1.57019351 0 0 Z M-16.6875 7.875 C-18.90399647 11.66449397 -19.6875 14.1081827 -19.6875 18.5 C-18.27782948 23.25763802 -15.72348384 25.38194518 -11.8125 28.25 C-8.43246055 29.24412925 -6.07881751 28.75206487 -2.6875 27.875 C0.72790567 25.76324247 3.01197914 23.77656258 4.3125 19.875 C4.75432408 13.91037498 3.79526589 10.8151175 -0.0234375 6.29296875 C-5.22642895 1.85943378 -12.13023082 3.53474364 -16.6875 7.875 Z " fill="#D5E1FF" transform="translate(651.6875,248.125)"/>
<path d="M0 0 C4.38735983 3.76059414 8.5104934 7.37369717 12.5625 11.4375 C13.89474609 12.76587891 13.89474609 12.76587891 15.25390625 14.12109375 C18.28953498 17.3035381 21.1377759 20.66073855 24 24 C24.33 16.74 24.66 9.48 25 2 C26.65 2 28.3 2 30 2 C30 13.22 30 24.44 30 36 C27 36 27 36 24.3984375 33.47265625 C23.38304463 32.34270365 22.37566831 31.2055129 21.375 30.0625 C20.30623457 28.8710063 19.23590785 27.68091132 18.1640625 26.4921875 C17.63329102 25.90147461 17.10251953 25.31076172 16.55566406 24.70214844 C13.17244084 21.00035429 9.57471221 17.51513367 6 14 C5.67 20.93 5.34 27.86 5 35 C3.35 35 1.7 35 0 35 C0 23.45 0 11.9 0 0 Z " fill="#D8E3FF" transform="translate(1136,246)"/>
<path d="M0 0 C15 0 15 0 20 4 C21.60547331 7.21094661 21.62772369 10.52748596 21 14 C18.5 16.8125 18.5 16.8125 16 19 C16 22.79867527 17.11131336 23.68564922 19.5 26.5625 C23 30.79166667 23 30.79166667 23 33 C20.2734375 33.3359375 20.2734375 33.3359375 17 33 C14.6640625 30.6640625 14.6640625 30.6640625 12.625 27.625 C11.93664062 26.62726563 11.24828125 25.62953125 10.5390625 24.6015625 C9 22 9 22 9 20 C7.68 20 6.36 20 5 20 C5 24.29 5 28.58 5 33 C3.35 33 1.7 33 0 33 C0 22.11 0 11.22 0 0 Z M5 4 C5 7.96 5 11.92 5 16 C7.165625 15.8453125 7.165625 15.8453125 9.375 15.6875 C10.18710937 15.62949219 10.99921875 15.57148438 11.8359375 15.51171875 C14.37921338 15.17009472 14.37921338 15.17009472 16 12 C16.5 9.5 16.5 9.5 16 7 C14.50098982 5.01990794 14.50098982 5.01990794 12 4 C8.33285151 3.74936268 8.33285151 3.74936268 5 4 Z " fill="#D5E1FF" transform="translate(883,248)"/>
<path d="M0 0 C4.95 0 9.9 0 15 0 C21 6 21 6 21 12 C19.34571318 15.91804773 17.77582537 17.27234491 14 19 C14.6496875 19.92683594 15.299375 20.85367187 15.96875 21.80859375 C16.81262221 23.01814391 17.65636558 24.22778397 18.5 25.4375 C18.92925781 26.04916016 19.35851562 26.66082031 19.80078125 27.29101562 C23 31.88671875 23 31.88671875 23 33 C19.765625 33.37109375 19.765625 33.37109375 16 33 C13.671875 30.41015625 13.671875 30.41015625 11.75 27.0625 C9.34392225 22.37714805 9.34392225 22.37714805 5 20 C5 24.29 5 28.58 5 33 C3.35 33 1.7 33 0 33 C0 22.11 0 11.22 0 0 Z M5 4 C5 7.96 5 11.92 5 16 C10.49463322 15.8257268 10.49463322 15.8257268 15.0625 13.25 C16.26985757 10.35234182 16.07827434 8.92674465 15 6 C11.3558226 3.5705484 9.28758728 3.83820425 5 4 Z " fill="#D5E1FF" transform="translate(577,248)"/>
<path d="M0 0 C1.65 0 3.3 0 5 0 C5 4.29 5 8.58 5 13 C10.61 13 16.22 13 22 13 C22 8.71 22 4.42 22 0 C23.65 0 25.3 0 27 0 C27 10.89 27 21.78 27 33 C25.35 33 23.7 33 22 33 C22 27.72 22 22.44 22 17 C16.39 17 10.78 17 5 17 C5 22.28 5 27.56 5 33 C3.35 33 1.7 33 0 33 C0 22.11 0 11.22 0 0 Z " fill="#D4E0FF" transform="translate(1664,248)"/>
<path d="M0 0 C2.21278764 1.83127253 3.39501792 3.56664007 5 6 C3.625 7.5 3.625 7.5 2 9 C1.34 9 0.68 9 0 9 C-0.598125 8.34 -1.19625 7.68 -1.8125 7 C-3.84769078 4.73417974 -3.84769078 4.73417974 -6.75 4.75 C-7.4925 4.8325 -8.235 4.915 -9 5 C-9.33 6.32 -9.66 7.64 -10 9 C-6.96204014 11.09763895 -4.1607782 12.92433967 -0.8125 14.5 C2.18584228 16.09911588 3.48700268 16.97400535 5 20 C5.36487709 24.08662336 5.68865414 27.72685583 3 31 C-0.76509904 33.14093867 -3.2790833 34.0124296 -7.625 33.9375 C-11.38810435 32.89219324 -13.28588582 31.79166029 -16 29 C-17.3125 26.25 -17.3125 26.25 -18 24 C-16.35 23.34 -14.7 22.68 -13 22 C-12.195625 23.2065625 -12.195625 23.2065625 -11.375 24.4375 C-9.18811833 27.23148907 -9.18811833 27.23148907 -5.875 27.9375 C-4.92625 27.958125 -3.9775 27.97875 -3 28 C-2.34 27.34 -1.68 26.68 -1 26 C-0.90414925 23.48962453 -0.90414925 23.48962453 -2 21 C-4.40955497 19.23493026 -4.40955497 19.23493026 -7.375 17.9375 C-11.24518027 16.09431388 -13.79568394 14.7495343 -16 11 C-16.57927796 7.11056226 -16.33348129 5.51747097 -14.1875 2.1875 C-10.10221669 -1.89778331 -5.28001999 -1.553491 0 0 Z " fill="#D5E1FF" transform="translate(1846,248)"/>
<path d="M0 0 C2.5 1.5625 2.5 1.5625 3.5 2.5625 C3.54080783 4.56208364 3.54254356 6.56295254 3.5 8.5625 C-0.5 6.5625 -0.5 6.5625 -2.359375 5.484375 C-6.06839108 3.88706151 -9.66611802 4.5758392 -13.5 5.5625 C-16.49452434 7.80839325 -17.31623122 9.01119367 -18.5 12.5625 C-18.89739146 16.77484945 -18.74964159 19.0724628 -16.8125 22.875 C-14.3331358 25.75642326 -13.18950764 26.79027747 -9.5 27.5625 C-4.79235637 27.31472928 -2.07555335 26.60834174 1.5 23.5625 C2.16 23.5625 2.82 23.5625 3.5 23.5625 C3.75 26.375 3.75 26.375 3.5 29.5625 C-0.00505154 32.91619704 -3.21892432 33.29691008 -7.90234375 33.62109375 C-12.6455098 33.51410504 -16.52953057 32.36141115 -20.0703125 29.12890625 C-24.51231927 24.03963564 -24.79626978 19.76187664 -24.7109375 13.28515625 C-24.31114162 8.12482789 -22.28343049 5.07226607 -18.5 1.75 C-12.77670373 -2.42323686 -6.46871292 -2.6567928 0 0 Z " fill="#D5E1FF" transform="translate(1628.5,248.4375)"/>
<path d="M0 0 C2.21278764 1.83127253 3.39501792 3.56664007 5 6 C4.01 6.99 3.02 7.98 2 9 C-1 8 -1 8 -2.375 6.4375 C-3.97558548 4.72766709 -3.97558548 4.72766709 -6.6875 4.8125 C-7.450625 4.874375 -8.21375 4.93625 -9 5 C-9.33 6.32 -9.66 7.64 -10 9 C-6.8102288 11.17838033 -3.64500946 13.21908815 -0.25 15.0625 C3 17 3 17 5 20 C5.59222616 24.48399808 5.31768942 26.48014459 2.9375 30.375 C-0.60208114 33.53802995 -2.28122303 34.08135822 -7 34 C-12.16979156 32.42277546 -15.07217931 30.56740028 -18 26 C-18 25.34 -18 24.68 -18 24 C-16.35 23.34 -14.7 22.68 -13 22 C-12.195625 23.2065625 -12.195625 23.2065625 -11.375 24.4375 C-9.18811833 27.23148907 -9.18811833 27.23148907 -5.875 27.9375 C-4.92625 27.958125 -3.9775 27.97875 -3 28 C-2.34 27.34 -1.68 26.68 -1 26 C-0.90414925 23.48962453 -0.90414925 23.48962453 -2 21 C-4.40955497 19.23493026 -4.40955497 19.23493026 -7.375 17.9375 C-11.24518027 16.09431388 -13.79568394 14.7495343 -16 11 C-16.57927796 7.11056226 -16.33348129 5.51747097 -14.1875 2.1875 C-10.10221669 -1.89778331 -5.28001999 -1.553491 0 0 Z " fill="#D5E1FF" transform="translate(1314,248)"/>
<path d="M0 0 C1 1 1 1 1.0625 4.0625 C1.041875 5.031875 1.02125 6.00125 1 7 C-3 5 -3 5 -4.859375 3.921875 C-8.56839108 2.32456151 -12.16611802 3.0133392 -16 4 C-18.99452434 6.24589325 -19.81623122 7.44869367 -21 11 C-21.39739146 15.21234945 -21.24964159 17.5099628 -19.3125 21.3125 C-16.8331358 24.19392326 -15.68950764 25.22777747 -12 26 C-7.29235637 25.75222928 -4.57555335 25.04584174 -1 22 C-0.34 22 0.32 22 1 22 C1.25 24.8125 1.25 24.8125 1 28 C-2.50505154 31.35369704 -5.71892432 31.73441008 -10.40234375 32.05859375 C-15.1455098 31.95160504 -19.02953057 30.79891115 -22.5703125 27.56640625 C-27.01231927 22.47713564 -27.29626978 18.19937664 -27.2109375 11.72265625 C-26.81386173 6.59743754 -24.79428829 3.52249055 -21.0625 0.1875 C-14.36428493 -4.59693934 -6.94169511 -4.23274092 0 0 Z " fill="#D5E1FF" transform="translate(544,250)"/>
<path d="M0 0 C3.16873508 2.65317043 4.46514899 5.80159976 6.13671875 9.53125 C6.42102249 10.16357544 6.70532623 10.79590088 6.99824524 11.4473877 C7.59568198 12.78065089 8.18970518 14.1154483 8.78051758 15.45166016 C9.68610284 17.49684463 10.60489256 19.53570982 11.52539062 21.57421875 C12.10496391 22.8720401 12.68376654 24.17020593 13.26171875 25.46875 C14.05002075 27.23895508 14.05002075 27.23895508 14.85424805 29.04492188 C16 32 16 32 16 35 C14.35 35 12.7 35 11 35 C10.32845067 33.71086513 9.66291141 32.41859796 9 31.125 C8.62875 30.40570313 8.2575 29.68640625 7.875 28.9453125 C7 27 7 27 7 25 C3.04 25.33 -0.92 25.66 -5 26 C-6.98 30.455 -6.98 30.455 -9 35 C-10.98 35 -12.96 35 -15 35 C-13.64262257 30.72925647 -12.04321741 26.66839485 -10.21484375 22.578125 C-9.68439453 21.38832031 -9.15394531 20.19851563 -8.60742188 18.97265625 C-8.05080298 17.73176109 -7.49416212 16.49087578 -6.9375 15.25 C-6.37670555 13.99360006 -5.81615642 12.73709059 -5.25585938 11.48046875 C-1.1979831 2.3959662 -1.1979831 2.3959662 0 0 Z M0 11 C-0.99 14.3 -1.98 17.6 -3 21 C-0.36 21 2.28 21 5 21 C3.68 17.7 2.36 14.4 1 11 C0.67 11 0.34 11 0 11 Z " fill="#D5E1FF" transform="translate(947,246)"/>
<path d="M0 0 C0.66 0 1.32 0 2 0 C4.13857014 4.82277902 6.27475288 9.64660538 8.40869141 14.47143555 C9.13556798 16.11398148 9.86310596 17.75623489 10.59130859 19.39819336 C11.63551445 21.75298413 12.6773678 24.10880314 13.71875 26.46484375 C14.04685669 27.20339096 14.37496338 27.94193817 14.7130127 28.7028656 C17 33.88612829 17 33.88612829 17 35 C15.02 35 13.04 35 11 35 C9.68 32.03 8.36 29.06 7 26 C3.04 26 -0.92 26 -5 26 C-6.98 30.455 -6.98 30.455 -9 35 C-10.98 35 -12.96 35 -15 35 C-10.23070248 23.22579675 -5.2158166 11.58317712 0 0 Z M0 12 C-0.99 14.97 -1.98 17.94 -3 21 C-0.36 21 2.28 21 5 21 C4.01 18.03 3.02 15.06 2 12 C1.34 12 0.68 12 0 12 Z " fill="#D5E1FF" transform="translate(1090,246)"/>
<path d="M0 0 C3.21024769 2.64886006 4.55246586 6.04685111 6.13671875 9.78515625 C6.42102249 10.44204941 6.70532623 11.09894257 6.99824524 11.77574158 C7.59573694 13.16031101 8.18975821 14.54638259 8.78051758 15.93383789 C9.6871896 18.0617715 10.60535898 20.18445395 11.52539062 22.30664062 C12.10484891 23.65335248 12.68364795 25.00034823 13.26171875 26.34765625 C13.53666672 26.98413589 13.81161469 27.62061554 14.09489441 28.27638245 C16 32.76789905 16 32.76789905 16 35 C14.02 35 12.04 35 10 35 C7 28.375 7 28.375 7 25 C2.71 25 -1.58 25 -6 25 C-6.99 28.3 -7.98 31.6 -9 35 C-10.98 35 -12.96 35 -15 35 C-12.63903042 27.41919971 -9.60099608 20.25009014 -6.375 13 C-5.87226562 11.85660156 -5.36953125 10.71320313 -4.8515625 9.53515625 C-1.13664379 1.13664379 -1.13664379 1.13664379 0 0 Z M0 11 C-1.32 14.3 -2.64 17.6 -4 21 C-1.03 21 1.94 21 5 21 C3.68 17.7 2.36 14.4 1 11 C0.67 11 0.34 11 0 11 Z " fill="#D5E1FF" transform="translate(1253,246)"/>
<path d="M0 0 C5.56701031 2.88659794 5.56701031 2.88659794 6.875 6.25 C6.91625 6.8275 6.9575 7.405 7 8 C5.02 8.99 5.02 8.99 3 10 C2.443125 9.34 1.88625 8.68 1.3125 8 C-0.84062308 5.74507789 -0.84062308 5.74507789 -3.75 5.75 C-4.4925 5.8325 -5.235 5.915 -6 6 C-6.5534764 8.07553648 -7 9.84365964 -7 12 C-6.154375 12.2475 -5.30875 12.495 -4.4375 12.75 C0.00666252 14.3660591 4.34936448 16.07425856 7.5 19.75 C8.29342899 23.32043044 8.10398431 26.50882885 7 30 C4.51106196 32.77338811 2.64814876 33.78864714 -0.875 34.9375 C-4.99268211 35.01985364 -7.41155907 33.99357829 -11 32 C-15 27.79487179 -15 27.79487179 -15 25 C-13.68 24.34 -12.36 23.68 -11 23 C-10.195625 24.2065625 -10.195625 24.2065625 -9.375 25.4375 C-7.18855464 28.2130571 -7.18855464 28.2130571 -3.9375 29 C-0.9947644 29.29787794 -0.9947644 29.29787794 0.875 27.5625 C1.24625 27.046875 1.6175 26.53125 2 26 C1.06942747 22.85603178 0.52129327 21.33799118 -2.27734375 19.5234375 C-3.15519531 19.14445312 -4.03304687 18.76546875 -4.9375 18.375 C-10.91416439 15.75195731 -10.91416439 15.75195731 -13 13 C-13.77669903 6.00970874 -13.77669903 6.00970874 -11.125 2.5625 C-7.29041264 -0.25704953 -4.77352116 -0.39779343 0 0 Z " fill="#D5E1FF" transform="translate(705,247)"/>
<path d="M0 0 C3.21024769 2.64886006 4.55246586 6.04685111 6.13671875 9.78515625 C6.42102249 10.44204941 6.70532623 11.09894257 6.99824524 11.77574158 C7.59573694 13.16031101 8.18975821 14.54638259 8.78051758 15.93383789 C9.6871896 18.0617715 10.60535898 20.18445395 11.52539062 22.30664062 C12.10484891 23.65335248 12.68364795 25.00034823 13.26171875 26.34765625 C13.53666672 26.98413589 13.81161469 27.62061554 14.09489441 28.27638245 C16 32.76789905 16 32.76789905 16 35 C14.35 35 12.7 35 11 35 C10.32845067 33.71086513 9.66291141 32.41859796 9 31.125 C8.62875 30.40570313 8.2575 29.68640625 7.875 28.9453125 C7 27 7 27 7 25 C2.71 25 -1.58 25 -6 25 C-6.33 26.65 -6.66 28.3 -7 30 C-7.63437344 31.6792238 -8.29289322 33.35008418 -9 35 C-10.98 35 -12.96 35 -15 35 C-12.63903042 27.41919971 -9.60099608 20.25009014 -6.375 13 C-5.87226562 11.85660156 -5.36953125 10.71320313 -4.8515625 9.53515625 C-1.13664379 1.13664379 -1.13664379 1.13664379 0 0 Z M0 11 C-2.29045014 15.81209901 -2.29045014 15.81209901 -3 21 C-0.36 21 2.28 21 5 21 C3.68 17.7 2.36 14.4 1 11 C0.67 11 0.34 11 0 11 Z " fill="#D5E1FF" transform="translate(1518,246)"/>
<path d="M0 0 C5.56701031 2.88659794 5.56701031 2.88659794 6.875 6.25 C6.91625 6.8275 6.9575 7.405 7 8 C5.02 8.99 5.02 8.99 3 10 C2.443125 9.34 1.88625 8.68 1.3125 8 C-0.84062308 5.74507789 -0.84062308 5.74507789 -3.75 5.75 C-4.4925 5.8325 -5.235 5.915 -6 6 C-6.33 7.65 -6.66 9.3 -7 11 C-6.24074219 11.39832031 -5.48148438 11.79664063 -4.69921875 12.20703125 C-3.20841797 13.00173828 -3.20841797 13.00173828 -1.6875 13.8125 C-0.70136719 14.33457031 0.28476562 14.85664063 1.30078125 15.39453125 C5.36626562 17.81264135 5.36626562 17.81264135 7 20 C7.68951216 23.06832911 7.56837108 25.914557 7 29 C4.47631975 32.67080764 2.82964117 33.75864984 -1.4375 35 C-6.61566815 35 -9.45945124 33.22453876 -13.4375 30.0625 C-15 28 -15 28 -14.9375 25.8125 C-14 24 -14 24 -11 23 C-10.195625 24.2065625 -10.195625 24.2065625 -9.375 25.4375 C-6.55190755 28.48346817 -5.07958555 28.82262672 -1 29 C-0.34 28.67 0.32 28.34 1 28 C1 26.02 1 24.04 1 22 C0.15695312 21.60167969 -0.68609375 21.20335937 -1.5546875 20.79296875 C-2.65039062 20.26316406 -3.74609375 19.73335938 -4.875 19.1875 C-5.96554687 18.66542969 -7.05609375 18.14335937 -8.1796875 17.60546875 C-11 16 -11 16 -13 13 C-13.6779661 5.88135593 -13.6779661 5.88135593 -11.125 2.5625 C-7.29041264 -0.25704953 -4.77352116 -0.39779343 0 0 Z " fill="#D5E1FF" transform="translate(757,247)"/>
<path d="M0 0 C1.65 0 3.3 0 5 0 C5.01458252 0.74161377 5.02916504 1.48322754 5.04418945 2.24731445 C5.11859457 5.60290631 5.21528006 8.95749494 5.3125 12.3125 C5.33505859 13.47974609 5.35761719 14.64699219 5.38085938 15.84960938 C5.41630859 16.96787109 5.45175781 18.08613281 5.48828125 19.23828125 C5.51446533 20.26993408 5.54064941 21.30158691 5.56762695 22.36450195 C5.80695126 25.01022553 5.80695126 25.01022553 7.30541992 26.87182617 C9.16473825 28.35278754 9.16473825 28.35278754 12.625 27.8125 C13.73875 27.544375 14.8525 27.27625 16 27 C17.31361698 24.37276604 17.21253909 22.27389439 17.31640625 19.3359375 C17.35830078 18.21445312 17.40019531 17.09296875 17.44335938 15.9375 C17.48267578 14.761875 17.52199219 13.58625 17.5625 12.375 C17.60568359 11.19164062 17.64886719 10.00828125 17.69335938 8.7890625 C17.79967426 5.85949672 17.90170642 2.92984412 18 0 C19.65 0 21.3 0 23 0 C23.11629782 4.39561039 23.18728634 8.79082429 23.25 13.1875 C23.30027344 15.05631836 23.30027344 15.05631836 23.3515625 16.96289062 C23.36445312 18.16494141 23.37734375 19.36699219 23.390625 20.60546875 C23.41157227 21.71043701 23.43251953 22.81540527 23.45410156 23.95385742 C22.89578104 27.6991075 21.60619745 29.3075106 19 32 C15.310394 34.25475922 12.09448866 34.26216554 7.93359375 33.6171875 C4.74687294 32.60001197 3.05007388 30.54706149 1 28 C-0.35700647 25.28598706 -0.1123861 23.15153684 -0.09765625 20.1171875 C-0.09443359 18.95058594 -0.09121094 17.78398437 -0.08789062 16.58203125 C-0.07951172 15.35871094 -0.07113281 14.13539063 -0.0625 12.875 C-0.05798828 11.64394531 -0.05347656 10.41289062 -0.04882812 9.14453125 C-0.0370133 6.09630608 -0.02054028 3.04817686 0 0 Z " fill="#D5E1FF" transform="translate(1723,248)"/>
<path d="M0 0 C6.6 0 13.2 0 20 0 C20 1.32 20 2.64 20 4 C15.05 4 10.1 4 5 4 C5 6.97 5 9.94 5 13 C9.62 13 14.24 13 19 13 C19 14.32 19 15.64 19 17 C14.38 17 9.76 17 5 17 C5 20.63 5 24.26 5 28 C9.95 28 14.9 28 20 28 C20 29.65 20 31.3 20 33 C13.4 33 6.8 33 0 33 C0 22.11 0 11.22 0 0 Z " fill="#D5E0FF" transform="translate(831,248)"/>
<path d="M0 0 C14 0 14 0 19 3 C20.8492795 6.46649255 21.21817565 9.93336348 20.4375 13.75 C18.53715474 16.72445345 17.08773104 18.22619706 14 20 C10.91568544 20.32602654 8.11678561 20.18607675 5 20 C5 24.29 5 28.58 5 33 C3.35 33 1.7 33 0 33 C0 22.11 0 11.22 0 0 Z M5 4 C5 7.63 5 11.26 5 15 C10.47963553 15.59842623 10.47963553 15.59842623 15.125 13.3125 C16.254603 10.98025189 16.254603 10.98025189 15.375 8.375 C14.07948232 5.73365529 14.07948232 5.73365529 11 4 C7.87478167 3.83300768 7.87478167 3.83300768 5 4 Z " fill="#D5E1FF" transform="translate(1779,248)"/>
<path d="M0 0 C2.1875 -0.5 2.1875 -0.5 5 0 C8.21952664 3.75916321 10.39848427 8.34104513 12 13 C12.66 13 13.32 13 14 13 C14.2475 12.154375 14.495 11.30875 14.75 10.4375 C16.13973627 6.61572526 17.91120838 3.48131937 20 0 C21.98 0 23.96 0 26 0 C24.73698083 3.55100155 23.06352069 6.54383574 21.02929688 9.70849609 C16.0951402 17.52238195 14.77251113 23.64452003 15 33 C13.35 33 11.7 33 10 33 C10.03222656 32.1028125 10.06445312 31.205625 10.09765625 30.28125 C10.00341434 20.14500895 7.2959412 13.70469681 1.93359375 5.16796875 C0 2 0 2 0 0 Z " fill="#D5E1FF" transform="translate(1347,248)"/>
<path d="M0 0 C5.61 0 11.22 0 17 0 C17 1.32 17 2.64 17 4 C13.04 4 9.08 4 5 4 C5 6.97 5 9.94 5 13 C8.96 13 12.92 13 17 13 C17 14.32 17 15.64 17 17 C13.04 17 9.08 17 5 17 C5 22.28 5 27.56 5 33 C3.35 33 1.7 33 0 33 C0 22.11 0 11.22 0 0 Z " fill="#D5E0FF" transform="translate(1033,248)"/>
<path d="M0 0 C7.26 0 14.52 0 22 0 C22 1.32 22 2.64 22 4 C19.03 4 16.06 4 13 4 C13 13.57 13 23.14 13 33 C11.35 33 9.7 33 8 33 C8 23.43 8 13.86 8 4 C5.36 4 2.72 4 0 4 C0 2.68 0 1.36 0 0 Z " fill="#D5E0FF" transform="translate(1557,248)"/>
<path d="M0 0 C7.26 0 14.52 0 22 0 C22 1.32 22 2.64 22 4 C19.03 4 16.06 4 13 4 C13 13.57 13 23.14 13 33 C11.35 33 9.7 33 8 33 C8 23.43 8 13.86 8 4 C5.36 4 2.72 4 0 4 C0 2.68 0 1.36 0 0 Z " fill="#D5E0FF" transform="translate(1195,248)"/>
<path d="M0 0 C3.3 0 6.6 0 10 0 C10 1.65 10 3.3 10 5 C6.7 5 3.4 5 0 5 C0 3.35 0 1.7 0 0 Z " fill="#D4E1FF" transform="translate(792,267)"/>
</svg>
